<svg width="1440" height="236" viewBox="0 0 1440 236" fill="none" xmlns="http://www.w3.org/2000/svg">
<path d="M0 78.4979V235.623H1440V42.9037C1424 29.8691 1377.8 0.622652 1327 0.622652C1276.2 0.622652 1232 33.5455 1217 48.4183C1212.83 40.2299 1201 30.7023 1185 30.7023C1169 30.7023 1158.5 40.2299 1155.5 48.4183C1151.5 36.2169 1133 21.7352 1105 20.6758C1072 19.4272 1052.5 38.7235 1046.5 55.9382C1029.33 41.0655 986 -1.37747 900.5 0.622652C820.522 2.4936 779 45.0761 759.5 61.9541C755.5 47.2461 736.648 18.5344 696.5 12.6545C652 6.13725 630.167 29.5349 618.5 42.9037C618.5 38.2246 615.5 30.201 605 27.193C593.565 23.9171 585.5 28.1981 583 32.8771C577 26.1904 563 18.6704 545.5 23.8532C529.722 28.5261 516.833 39.8957 515 55.9382C499.5 42.2352 461.7 16.6651 402.5 20.6758C343.3 24.6864 305.5 57.9435 298 74.4873C294.5 62.6226 282.2 44.5389 259 39.7262C235.8 34.9134 212.833 43.9063 204.5 52.4288C194.167 33.7126 152.1 -5.3934 92.5 0.62253C32.9 6.63846 7.83333 56.1053 0 78.4979Z" fill="white"/>
</svg>
